<svg xmlns="http://www.w3.org/2000/svg" xmlns:xlink="http://www.w3.org/1999/xlink" width="24" height="24" viewBox="0 0 24 24">
  <defs>
    <clipPath id="clip-path">
      <rect id="Rectangle_3773" data-name="Rectangle 3773" width="24" height="24" transform="translate(841 302)" fill="#fff" stroke="#707070" stroke-width="1"/>
    </clipPath>
    <clipPath id="clip-path-2">
      <rect id="Rectangle_3770" data-name="Rectangle 3770" width="11" height="24" transform="translate(841 301)" fill="#fff" stroke="#707070" stroke-width="1"/>
    </clipPath>
    <clipPath id="clip-path-3">
      <rect id="Rectangle_3769" data-name="Rectangle 3769" width="24" height="24" fill="none"/>
    </clipPath>
    <clipPath id="clip-path-4">
      <rect id="Rectangle_3771" data-name="Rectangle 3771" width="11" height="24" transform="translate(867 270)" fill="#fff" stroke="#707070" stroke-width="0.5"/>
    </clipPath>
  </defs>
  <g id="Mask_Group_328" data-name="Mask Group 328" transform="translate(-841 -302)" clip-path="url(#clip-path)">
    <g id="Group_4844" data-name="Group 4844">
      <g id="Mask_Group_326" data-name="Mask Group 326" transform="translate(0 1)" clip-path="url(#clip-path-2)">
        <g id="Group_4843" data-name="Group 4843" transform="translate(46 39)">
          <g id="car" transform="translate(795 262)" clip-path="url(#clip-path-3)">
            <path id="Path_5916" data-name="Path 5916" d="M15.51,2.83H8.49C6,2.83,5.45,4.07,5.13,5.59L4,11H20L18.87,5.59C18.55,4.07,18,2.83,15.51,2.83Z" fill="none" stroke="#fff" stroke-linecap="round" stroke-linejoin="round" stroke-width="1.5"/>
            <path id="Path_5917" data-name="Path 5917" d="M21.99,19.82A2.014,2.014,0,0,1,19.96,22H18.08c-1.08,0-1.23-.46-1.42-1.03l-.2-.6C16.18,19.55,16,19,14.56,19H9.44c-1.44,0-1.65.62-1.9,1.37l-.2.6C7.15,21.54,7,22,5.92,22H4.04a2.014,2.014,0,0,1-2.03-2.18l.56-6.09C2.71,12.23,3,11,5.62,11H18.38c2.62,0,2.91,1.23,3.05,2.73Z" fill="none" stroke="#fff" stroke-linecap="round" stroke-linejoin="round" stroke-width="1.5"/>
            <path id="Path_5918" data-name="Path 5918" d="M4,8H3" fill="none" stroke="#fff" stroke-linecap="round" stroke-linejoin="round" stroke-width="1.5"/>
            <path id="Path_5919" data-name="Path 5919" d="M21,8H20" fill="none" stroke="#fff" stroke-linecap="round" stroke-linejoin="round" stroke-width="1.5"/>
            <path id="Path_5920" data-name="Path 5920" d="M12,3V5" fill="none" stroke="#fff" stroke-linecap="round" stroke-linejoin="round" stroke-width="1.5"/>
            <path id="Path_5921" data-name="Path 5921" d="M10.5,5h3" fill="none" stroke="#fff" stroke-linecap="round" stroke-linejoin="round" stroke-width="1.5"/>
            <path id="Path_5922" data-name="Path 5922" d="M6,15H9" fill="none" stroke="#fff" stroke-linecap="round" stroke-linejoin="round" stroke-width="1.5"/>
            <path id="Path_5923" data-name="Path 5923" d="M15,15h3" fill="none" stroke="#fff" stroke-linecap="round" stroke-linejoin="round" stroke-width="1.5"/>
          </g>
        </g>
      </g>
      <g id="Mask_Group_327" data-name="Mask Group 327" transform="translate(-13 35)" clip-path="url(#clip-path-4)">
        <path id="ic_motorcycle_24px" d="M19.44,9.03,15.41,5H11V7h3.59l2,2H5A5,5,0,0,0,5,19a4.931,4.931,0,0,0,4.9-4h1.65l2.77-2.77A4.883,4.883,0,0,0,14,14a5,5,0,1,0,5.44-4.97ZM7.82,15A3.044,3.044,0,0,1,5,17a3,3,0,0,1,0-6,3.044,3.044,0,0,1,2.82,2H5v2H7.82ZM19,17a3,3,0,1,1,3-3A3,3,0,0,1,19,17Z" transform="translate(853.5 270.5)" fill="#fff"/>
      </g>
    </g>
  </g>
</svg>
